<svg xmlns="http://www.w3.org/2000/svg" xmlns:xlink="http://www.w3.org/1999/xlink" width="110" zoomAndPan="magnify" viewBox="0 0 82.5 82.499998" height="110" preserveAspectRatio="xMidYMid meet" version="1.0"><defs><clipPath id="396e6477d7"><path d="M 26 28.730469 L 57.75 28.730469 L 57.75 53.480469 L 26 53.480469 Z M 26 28.730469 " clip-rule="nonzero"/></clipPath></defs><g clip-path="url(#396e6477d7)"><path fill="white" d="M 36.414062 53 C 36.953125 53.386719 37.6875 53.476562 38.335938 53.476562 C 39.25 53.476562 40.164062 53.476562 41.078125 53.476562 C 41.378906 53.476562 41.65625 53.332031 41.796875 53.0625 C 42.035156 52.609375 41.75 52.160156 41.386719 51.894531 C 41.121094 51.699219 40.789062 51.566406 40.457031 51.53125 C 40.355469 51.519531 40.164062 51.511719 39.945312 51.5 C 40.339844 51.089844 40.636719 50.628906 40.851562 50.140625 L 41.160156 50 C 41.65625 49.777344 42.136719 49.515625 42.601562 49.226562 C 42.605469 49.273438 42.613281 49.316406 42.617188 49.363281 C 42.671875 49.84375 42.710938 50.316406 42.722656 50.800781 C 42.730469 51.167969 42.832031 51.589844 43.078125 51.875 C 43.195312 52.597656 43.5625 53.417969 44.402344 53.417969 L 45.558594 53.417969 L 45.558594 53.414062 C 45.582031 53.414062 45.605469 53.417969 45.628906 53.417969 L 46.5 53.417969 C 46.867188 53.417969 47.203125 53.238281 47.300781 52.855469 C 47.371094 52.578125 47.265625 52.300781 47.054688 52.117188 C 46.988281 52.0625 46.917969 52.015625 46.847656 51.976562 C 46.730469 51.910156 46.605469 51.855469 46.480469 51.808594 C 46.355469 51.761719 46.226562 51.714844 46.097656 51.679688 C 45.898438 51.59375 45.660156 51.265625 45.625 51.058594 C 45.429688 49.992188 45.691406 48.820312 46.09375 47.832031 C 46.28125 47.367188 46.476562 46.90625 46.699219 46.453125 C 47.335938 45.160156 48.140625 44.152344 49.164062 43.136719 C 49.980469 42.332031 50.671875 41.425781 51.113281 40.371094 C 51.4375 39.589844 51.582031 38.824219 51.667969 37.992188 C 51.691406 37.796875 51.742188 37.394531 51.898438 37.25 C 52.164062 37 53.203125 37.097656 53.527344 37.125 C 54.367188 37.203125 55.257812 37.128906 55.960938 36.625 C 56.367188 36.332031 56.621094 35.972656 56.835938 35.554688 C 56.976562 35.464844 57.109375 35.355469 57.210938 35.238281 C 57.621094 34.78125 57.75 34.152344 57.734375 33.554688 C 57.734375 33.445312 57.722656 33.335938 57.707031 33.226562 C 57.429688 31.375 55.414062 30.394531 53.761719 30.03125 C 52.996094 29.863281 52.242188 29.59375 51.476562 29.410156 C 50.527344 29.1875 49.578125 29.078125 48.613281 29.210938 C 48.167969 28.898438 47.636719 28.738281 47.101562 28.878906 C 46.4375 29.058594 46.125 29.585938 46.105469 30.183594 C 45.519531 30.613281 44.980469 31.082031 44.457031 31.589844 C 44.007812 32.023438 43.582031 32.480469 43.136719 32.921875 C 42.429688 33.621094 41.742188 34.183594 40.863281 34.660156 C 39.585938 35.355469 38.105469 35.777344 36.6875 36.082031 C 36.121094 36.207031 35.5625 36.359375 35.015625 36.546875 C 31.761719 37.65625 28.605469 40 27.378906 43.277344 C 26.34375 46.046875 26.925781 48.824219 28.480469 51.273438 C 29.152344 52.335938 30.488281 53.085938 31.671875 53.445312 L 31.773438 53.476562 L 35.378906 53.476562 L 35.492188 53.433594 C 35.773438 53.335938 36.132812 53.183594 36.414062 53 Z M 29.078125 50.902344 C 29.566406 51.671875 30.625 52.394531 31.878906 52.777344 L 35.257812 52.777344 C 35.542969 52.675781 35.988281 52.476562 36.175781 52.300781 C 36.019531 51.316406 36.519531 50.960938 36.519531 50.960938 C 36.09375 52.378906 37.054688 52.777344 38.335938 52.777344 C 39.25 52.777344 40.164062 52.777344 41.078125 52.777344 C 41.390625 52.777344 40.921875 52.285156 40.382812 52.226562 C 39.84375 52.171875 38.726562 52.214844 38.289062 51.890625 C 41.496094 50.136719 41.046875 46.035156 38.582031 43.796875 C 38.582031 43.796875 41.382812 45.621094 40.863281 49.367188 C 41.347656 49.148438 42.09375 48.761719 42.90625 48.175781 C 42.871094 46.902344 43.671875 45.71875 43.671875 45.71875 C 42.820312 47.796875 43.382812 48.589844 43.429688 50.785156 C 43.441406 51.441406 43.746094 51.5 43.746094 51.5 C 43.746094 51.5 43.820312 52.71875 44.402344 52.71875 L 45.074219 52.71875 C 45.113281 52.625 44.894531 52.558594 44.792969 52.460938 C 44.972656 52.554688 45.316406 52.71875 45.628906 52.71875 L 46.5 52.71875 C 46.882812 52.71875 46.203125 52.429688 45.90625 52.355469 C 45.613281 52.28125 45.039062 51.792969 44.925781 51.179688 C 44.816406 50.570312 44.726562 49.320312 45.4375 47.570312 C 46.144531 45.820312 46.808594 44.480469 48.667969 42.644531 C 50.523438 40.804688 50.820312 39.289062 50.96875 37.917969 C 51.113281 36.546875 51.675781 36.253906 53.59375 36.429688 C 55.511719 36.605469 55.980469 35.730469 56.304688 35.03125 C 56.304688 35.03125 57.058594 34.839844 57.027344 33.574219 C 57 32.304688 55.730469 31.179688 53.605469 30.714844 C 52.253906 30.417969 50.507812 29.617188 48.609375 29.917969 C 48.835938 30.199219 48.878906 30.566406 48.878906 30.566406 C 48.617188 30.046875 47.9375 29.378906 47.289062 29.554688 C 46.835938 29.675781 46.746094 30.101562 46.847656 30.542969 C 46.984375 31.085938 47.332031 31.878906 47.832031 32.1875 C 47.832031 32.1875 46.8125 31.832031 46.609375 30.6875 C 43.242188 33.125 43.28125 35.378906 36.839844 36.765625 C 30.445312 38.144531 24.75 44.066406 29.078125 50.902344 Z M 29.078125 50.902344 " fill-opacity="1" fill-rule="evenodd"/></g></svg>