<?xml version="1.0" standalone="no"?>
<!DOCTYPE svg PUBLIC "-//W3C//DTD SVG 20010904//EN"
 "http://www.w3.org/TR/2001/REC-SVG-20010904/DTD/svg10.dtd">
<svg version="1.0" xmlns="http://www.w3.org/2000/svg"
 width="40.000000pt" height="40.000000pt" viewBox="0 0 200.000000 200.000000"
 preserveAspectRatio="xMidYMid meet">

<g transform="translate(0.000000,200.000000) scale(0.100000,-0.100000)"
fill="#000000" stroke="none">
<path d="M1325 1651 c-298 -91 -360 -113 -359 -126 0 -6 43 -32 95 -58 92 -48
94 -50 131 -119 44 -81 43 -85 -34 -124 -62 -31 -74 -30 -87 7 -6 18 -19 38
-28 45 -24 18 -70 18 -80 0 -4 -8 -17 -15 -28 -17 -29 -6 -31 -44 -3 -63 12
-9 44 -19 70 -22 46 -6 48 -8 35 -27 -37 -56 -138 -73 -213 -36 -54 25 -72 45
-56 61 16 16 15 43 -2 57 -21 18 -46 2 -46 -29 0 -24 -5 -28 -39 -34 -84 -13
-201 26 -269 91 -23 22 -42 35 -42 28 0 -21 65 -74 125 -102 51 -24 73 -28
153 -29 78 -1 96 -4 115 -21 42 -39 90 -57 152 -57 71 -1 115 21 141 69 13 25
27 35 67 45 33 8 77 34 134 76 l83 64 73 -40 c41 -22 77 -37 80 -33 4 3 7 23
7 43 0 87 45 281 97 416 3 8 -1 14 -8 13 -8 -1 -126 -36 -264 -78z m170 20
c-6 -5 -84 -58 -175 -118 l-166 -110 -39 15 c-22 9 -58 26 -80 39 -47 26 -73
14 225 110 230 74 251 80 235 64z m35 -81 c-22 -76 -50 -228 -50 -276 0 -19
-2 -34 -5 -34 -17 0 -226 113 -223 120 4 12 289 262 294 258 2 -2 -5 -33 -16
-68z m-85 12 c-213 -182 -234 -204 -229 -235 5 -31 5 -30 -20 12 -14 23 -26
45 -26 47 0 2 62 44 138 94 124 81 163 104 137 82z m-170 -244 c28 -13 30 -35
3 -52 -21 -13 -24 -10 -33 32 -7 36 -6 37 30 20z m-515 -153 c0 -8 -4 -15 -10
-15 -5 0 -10 7 -10 15 0 8 5 15 10 15 6 0 10 -7 10 -15z"/>
<path d="M974 954 c-5 -1 -22 -5 -37 -8 -16 -4 -36 -20 -47 -39 -18 -29 -20
-51 -20 -207 0 -156 2 -179 20 -207 49 -81 188 -53 205 41 4 17 5 104 3 193
l-3 162 -28 29 c-26 27 -66 42 -93 36z m48 -71 c16 -14 18 -34 18 -184 0 -181
-5 -199 -55 -199 -50 0 -55 17 -55 204 0 120 4 176 12 184 17 17 58 15 80 -5z"/>
<path d="M1228 952 c-15 -2 -39 -17 -53 -33 -25 -30 -25 -32 -25 -219 0 -186
0 -189 25 -218 45 -53 140 -47 175 11 16 26 20 51 20 130 l0 97 -50 0 c-47 0
-50 -2 -50 -25 0 -18 5 -25 20 -25 23 0 36 -51 27 -106 -8 -49 -24 -66 -61
-62 -48 5 -56 32 -56 198 0 166 8 193 56 198 38 4 54 -14 61 -67 4 -27 11 -41
24 -44 10 -3 20 -2 23 1 14 13 4 89 -14 119 -17 29 -30 36 -85 47 -5 1 -22 0
-37 -2z"/>
<path d="M352 703 l3 -248 83 -3 c79 -3 84 -2 111 26 51 50 53 165 5 218 -25
26 -25 26 -5 40 26 19 37 93 22 145 -16 53 -50 69 -146 69 l-75 0 2 -247z
m146 181 c18 -12 22 -25 22 -64 0 -60 -18 -80 -71 -80 l-39 0 0 80 0 80 33 0
c18 0 43 -7 55 -16z m13 -220 c27 -25 27 -116 -1 -144 -21 -21 -39 -24 -77
-14 -22 6 -23 11 -23 96 l0 91 41 -6 c22 -3 49 -13 60 -23z"/>
<path d="M630 700 l0 -250 100 0 100 0 0 25 c0 23 -4 25 -47 25 -100 0 -93
-18 -93 231 l0 219 -30 0 -30 0 0 -250z"/>
<path d="M1420 700 l0 -250 30 0 30 0 0 105 0 105 34 0 c60 0 75 -23 78 -120
l3 -85 30 -3 30 -3 -5 94 c-5 91 -24 147 -51 147 -5 0 3 11 18 24 26 23 28 29
28 101 0 74 -1 78 -33 106 -30 27 -38 29 -112 29 l-80 0 0 -250z m150 180 c15
-15 20 -33 20 -74 0 -66 -16 -86 -71 -86 l-39 0 0 90 0 90 35 0 c22 0 43 -8
55 -20z"/>
</g>
</svg>
