<svg xmlns="http://www.w3.org/2000/svg" xmlns:xlink="http://www.w3.org/1999/xlink" width="110" zoomAndPan="magnify" viewBox="0 0 82.5 82.499998" height="110" preserveAspectRatio="xMidYMid meet" version="1.0"><defs><g/><clipPath id="273b9f9a38"><path d="M 26 28.730469 L 57.75 28.730469 L 57.75 53.480469 L 26 53.480469 Z M 26 28.730469 " clip-rule="nonzero"/></clipPath><clipPath id="a7a0dec8f8"><path d="M 8.25 8.25 L 74.25 8.25 L 74.25 74.25 L 8.25 74.25 Z M 8.25 8.25 " clip-rule="nonzero"/></clipPath><clipPath id="24c55a32e4"><path d="M 41.25 8.25 C 23.023438 8.25 8.25 23.023438 8.25 41.25 C 8.25 59.476562 23.023438 74.25 41.25 74.25 C 59.476562 74.25 74.25 59.476562 74.25 41.25 C 74.25 23.023438 59.476562 8.25 41.25 8.25 " clip-rule="nonzero"/></clipPath><clipPath id="f937b55b04"><path d="M 10.484375 10.484375 L 71.984375 10.484375 L 71.984375 71.984375 L 10.484375 71.984375 Z M 10.484375 10.484375 " clip-rule="nonzero"/></clipPath><clipPath id="20fb53a132"><path d="M 41.234375 10.484375 C 24.25 10.484375 10.484375 24.25 10.484375 41.234375 C 10.484375 58.214844 24.25 71.984375 41.234375 71.984375 C 58.214844 71.984375 71.984375 58.214844 71.984375 41.234375 C 71.984375 24.25 58.214844 10.484375 41.234375 10.484375 " clip-rule="nonzero"/></clipPath><clipPath id="e32064ca26"><path d="M 19.429688 19.429688 L 62.929688 19.429688 L 62.929688 62.929688 L 19.429688 62.929688 Z M 19.429688 19.429688 " clip-rule="nonzero"/></clipPath><clipPath id="6291cd48d7"><path d="M 41.179688 19.429688 C 29.167969 19.429688 19.429688 29.167969 19.429688 41.179688 C 19.429688 53.191406 29.167969 62.929688 41.179688 62.929688 C 53.191406 62.929688 62.929688 53.191406 62.929688 41.179688 C 62.929688 29.167969 53.191406 19.429688 41.179688 19.429688 " clip-rule="nonzero"/></clipPath></defs><g clip-path="url(#273b9f9a38)"><path fill="#000000" d="M 36.414062 53 C 36.953125 53.386719 37.6875 53.476562 38.335938 53.476562 C 39.25 53.476562 40.164062 53.476562 41.078125 53.476562 C 41.378906 53.476562 41.65625 53.332031 41.796875 53.0625 C 42.035156 52.609375 41.75 52.160156 41.386719 51.894531 C 41.121094 51.699219 40.789062 51.566406 40.457031 51.53125 C 40.355469 51.519531 40.164062 51.511719 39.945312 51.5 C 40.339844 51.089844 40.636719 50.628906 40.851562 50.140625 L 41.160156 50 C 41.65625 49.777344 42.136719 49.515625 42.601562 49.226562 C 42.605469 49.273438 42.613281 49.316406 42.617188 49.363281 C 42.671875 49.84375 42.710938 50.316406 42.722656 50.800781 C 42.730469 51.167969 42.832031 51.589844 43.078125 51.875 C 43.195312 52.597656 43.5625 53.417969 44.402344 53.417969 L 45.558594 53.417969 L 45.558594 53.414062 C 45.582031 53.414062 45.605469 53.417969 45.628906 53.417969 L 46.5 53.417969 C 46.867188 53.417969 47.203125 53.238281 47.300781 52.855469 C 47.371094 52.578125 47.265625 52.300781 47.054688 52.117188 C 46.988281 52.0625 46.917969 52.015625 46.847656 51.976562 C 46.730469 51.910156 46.605469 51.855469 46.480469 51.808594 C 46.355469 51.761719 46.226562 51.714844 46.097656 51.679688 C 45.898438 51.59375 45.660156 51.265625 45.625 51.058594 C 45.429688 49.992188 45.691406 48.820312 46.09375 47.832031 C 46.28125 47.367188 46.476562 46.90625 46.699219 46.453125 C 47.335938 45.160156 48.140625 44.152344 49.164062 43.136719 C 49.980469 42.332031 50.671875 41.425781 51.113281 40.371094 C 51.4375 39.589844 51.582031 38.824219 51.667969 37.992188 C 51.691406 37.796875 51.742188 37.394531 51.898438 37.25 C 52.164062 37 53.203125 37.097656 53.527344 37.125 C 54.367188 37.203125 55.257812 37.128906 55.960938 36.625 C 56.367188 36.332031 56.621094 35.972656 56.835938 35.554688 C 56.976562 35.464844 57.109375 35.355469 57.210938 35.238281 C 57.621094 34.78125 57.75 34.152344 57.734375 33.554688 C 57.734375 33.445312 57.722656 33.335938 57.707031 33.226562 C 57.429688 31.375 55.414062 30.394531 53.761719 30.03125 C 52.996094 29.863281 52.242188 29.59375 51.476562 29.410156 C 50.527344 29.1875 49.578125 29.078125 48.613281 29.210938 C 48.167969 28.898438 47.636719 28.738281 47.101562 28.878906 C 46.4375 29.058594 46.125 29.585938 46.105469 30.183594 C 45.519531 30.613281 44.980469 31.082031 44.457031 31.589844 C 44.007812 32.023438 43.582031 32.480469 43.136719 32.921875 C 42.429688 33.621094 41.742188 34.183594 40.863281 34.660156 C 39.585938 35.355469 38.105469 35.777344 36.6875 36.082031 C 36.121094 36.207031 35.5625 36.359375 35.015625 36.546875 C 31.761719 37.65625 28.605469 40 27.378906 43.277344 C 26.34375 46.046875 26.925781 48.824219 28.480469 51.273438 C 29.152344 52.335938 30.488281 53.085938 31.671875 53.445312 L 31.773438 53.476562 L 35.378906 53.476562 L 35.492188 53.433594 C 35.773438 53.335938 36.132812 53.183594 36.414062 53 Z M 29.078125 50.902344 C 29.566406 51.671875 30.625 52.394531 31.878906 52.777344 L 35.257812 52.777344 C 35.542969 52.675781 35.988281 52.476562 36.175781 52.300781 C 36.019531 51.316406 36.519531 50.960938 36.519531 50.960938 C 36.09375 52.378906 37.054688 52.777344 38.335938 52.777344 C 39.25 52.777344 40.164062 52.777344 41.078125 52.777344 C 41.390625 52.777344 40.921875 52.285156 40.382812 52.226562 C 39.84375 52.171875 38.726562 52.214844 38.289062 51.890625 C 41.496094 50.136719 41.046875 46.035156 38.582031 43.796875 C 38.582031 43.796875 41.382812 45.621094 40.863281 49.367188 C 41.347656 49.148438 42.09375 48.761719 42.90625 48.175781 C 42.871094 46.902344 43.671875 45.71875 43.671875 45.71875 C 42.820312 47.796875 43.382812 48.589844 43.429688 50.785156 C 43.441406 51.441406 43.746094 51.5 43.746094 51.5 C 43.746094 51.5 43.820312 52.71875 44.402344 52.71875 L 45.074219 52.71875 C 45.113281 52.625 44.894531 52.558594 44.792969 52.460938 C 44.972656 52.554688 45.316406 52.71875 45.628906 52.71875 L 46.5 52.71875 C 46.882812 52.71875 46.203125 52.429688 45.90625 52.355469 C 45.613281 52.28125 45.039062 51.792969 44.925781 51.179688 C 44.816406 50.570312 44.726562 49.320312 45.4375 47.570312 C 46.144531 45.820312 46.808594 44.480469 48.667969 42.644531 C 50.523438 40.804688 50.820312 39.289062 50.96875 37.917969 C 51.113281 36.546875 51.675781 36.253906 53.59375 36.429688 C 55.511719 36.605469 55.980469 35.730469 56.304688 35.03125 C 56.304688 35.03125 57.058594 34.839844 57.027344 33.574219 C 57 32.304688 55.730469 31.179688 53.605469 30.714844 C 52.253906 30.417969 50.507812 29.617188 48.609375 29.917969 C 48.835938 30.199219 48.878906 30.566406 48.878906 30.566406 C 48.617188 30.046875 47.9375 29.378906 47.289062 29.554688 C 46.835938 29.675781 46.746094 30.101562 46.847656 30.542969 C 46.984375 31.085938 47.332031 31.878906 47.832031 32.1875 C 47.832031 32.1875 46.8125 31.832031 46.609375 30.6875 C 43.242188 33.125 43.28125 35.378906 36.839844 36.765625 C 30.445312 38.144531 24.75 44.066406 29.078125 50.902344 Z M 29.078125 50.902344 " fill-opacity="1" fill-rule="evenodd"/></g><g clip-path="url(#a7a0dec8f8)"><g clip-path="url(#24c55a32e4)"><path stroke-linecap="butt" transform="matrix(0.75, 0, 0, 0.75, 8.25, 8.25)" fill="none" stroke-linejoin="miter" d="M 44.000004 -0.000000176205 C 19.697918 -0.000000176205 -0.000000184237 19.697918 -0.000000184237 44.000004 C -0.000000184237 68.30209 19.697918 88.000008 44.000004 88.000008 C 68.30209 88.000008 88.000008 68.30209 88.000008 44.000004 C 88.000008 19.697918 68.30209 -0.000000176205 44.000004 -0.000000176205 " stroke="#4a5040" stroke-width="4" stroke-opacity="1" stroke-miterlimit="4"/></g></g><g clip-path="url(#f937b55b04)"><g clip-path="url(#20fb53a132)"><path stroke-linecap="butt" transform="matrix(0.749714, 0, 0, 0.749714, 10.482474, 10.482474)" fill="none" stroke-linejoin="miter" d="M 41.018168 0.00253616 C 18.363701 0.00253616 0.00253616 18.363701 0.00253616 41.018168 C 0.00253616 63.667425 18.363701 82.033799 41.018168 82.033799 C 63.667425 82.033799 82.033799 63.667425 82.033799 41.018168 C 82.033799 18.363701 63.667425 0.00253616 41.018168 0.00253616 " stroke="#4a5040" stroke-width="2" stroke-opacity="1" stroke-miterlimit="4"/></g></g><g clip-path="url(#e32064ca26)"><g clip-path="url(#6291cd48d7)"><path stroke-linecap="butt" transform="matrix(0.747583, 0, 0, 0.747583, 19.429561, 19.429561)" fill="none" stroke-linejoin="miter" d="M 29.093921 0.000169163 C 13.02652 0.000169163 0.000169155 13.02652 0.000169155 29.093921 C 0.000169155 45.161321 13.02652 58.187672 29.093921 58.187672 C 45.161321 58.187672 58.187672 45.161321 58.187672 29.093921 C 58.187672 13.02652 45.161321 0.000169163 29.093921 0.000169163 " stroke="#4a5040" stroke-width="2" stroke-opacity="1" stroke-miterlimit="4"/></g></g><path stroke-linecap="butt" transform="matrix(0.76494, 0, 0, 0.75, 11.234887, 37.200719)" fill="none" stroke-linejoin="miter" d="M -0.000669225 0.498 L 11.770064 0.498 " stroke="#4a5040" stroke-width="1" stroke-opacity="1" stroke-miterlimit="4"/><path stroke-linecap="butt" transform="matrix(0.76494, 0, 0, 0.75, 62.452265, 37.200719)" fill="none" stroke-linejoin="miter" d="M 0.00112467 0.498 L 11.771858 0.498 " stroke="#4a5040" stroke-width="1" stroke-opacity="1" stroke-miterlimit="4"/><path stroke-linecap="butt" transform="matrix(0.764935, -0.00291561, 0.00285866, 0.749994, 11.233458, 44.54927)" fill="none" stroke-linejoin="miter" d="M -0.000676649 0.502015 L 11.770145 0.500899 " stroke="#4a5040" stroke-width="1" stroke-opacity="1" stroke-miterlimit="4"/><path stroke-linecap="butt" transform="matrix(0.764935, -0.00291561, 0.00285866, 0.749994, 62.450845, 44.54927)" fill="none" stroke-linejoin="miter" d="M 0.00110414 0.502022 L 11.771926 0.500906 " stroke="#4a5040" stroke-width="1" stroke-opacity="1" stroke-miterlimit="4"/><g fill="#4a5040" fill-opacity="1"><g transform="translate(27.295565, 21.524087)"><g><path d="M -0.109375 -4.46875 C 0.140625 -4.613281 0.410156 -4.703125 0.703125 -4.734375 C 1.003906 -4.773438 1.285156 -4.757812 1.546875 -4.6875 L 1.40625 -3.828125 C 1.21875 -3.898438 1.03125 -3.925781 0.84375 -3.90625 C 0.65625 -3.894531 0.484375 -3.84375 0.328125 -3.75 C 0.0664062 -3.59375 -0.09375 -3.367188 -0.15625 -3.078125 C -0.21875 -2.796875 -0.171875 -2.519531 -0.015625 -2.25 C 0.148438 -1.976562 0.375 -1.800781 0.65625 -1.71875 C 0.9375 -1.632812 1.207031 -1.671875 1.46875 -1.828125 C 1.613281 -1.910156 1.738281 -2.03125 1.84375 -2.1875 C 1.945312 -2.34375 2.023438 -2.519531 2.078125 -2.71875 L 2.890625 -2.484375 C 2.816406 -2.191406 2.691406 -1.914062 2.515625 -1.65625 C 2.335938 -1.394531 2.128906 -1.195312 1.890625 -1.0625 C 1.378906 -0.757812 0.859375 -0.671875 0.328125 -0.796875 C -0.191406 -0.929688 -0.59375 -1.242188 -0.875 -1.734375 C -1.15625 -2.203125 -1.222656 -2.695312 -1.078125 -3.21875 C -0.929688 -3.75 -0.609375 -4.164062 -0.109375 -4.46875 Z M -0.109375 -4.46875 "/></g></g></g><g fill="#4a5040" fill-opacity="1"><g transform="translate(30.270567, 19.706038)"><g><path d="M 2.453125 -1.75 L 0.90625 -1.125 L 0.90625 -0.375 L -0.03125 0.015625 L 0.078125 -4.171875 L 1.015625 -4.546875 L 3.953125 -1.59375 L 2.984375 -1.203125 Z M 1.921875 -2.34375 L 0.875 -3.453125 L 0.890625 -1.921875 Z M 1.921875 -2.34375 "/></g></g></g><g fill="#4a5040" fill-opacity="1"><g transform="translate(33.899625, 18.237456)"><g><path d="M -0.5 -3.828125 L 1.125 -4.203125 C 1.601562 -4.316406 2 -4.296875 2.3125 -4.140625 C 2.632812 -3.984375 2.84375 -3.695312 2.9375 -3.28125 C 3.039062 -2.832031 2.988281 -2.453125 2.78125 -2.140625 C 2.570312 -1.835938 2.226562 -1.628906 1.75 -1.515625 L 1.078125 -1.359375 L 1.328125 -0.3125 L 0.375 -0.09375 Z M 0.625 -3.3125 L 0.90625 -2.125 L 1.546875 -2.28125 C 1.753906 -2.320312 1.898438 -2.40625 1.984375 -2.53125 C 2.066406 -2.65625 2.085938 -2.816406 2.046875 -3.015625 C 2.003906 -3.203125 1.914062 -3.332031 1.78125 -3.40625 C 1.644531 -3.488281 1.472656 -3.507812 1.265625 -3.46875 Z M 0.625 -3.3125 "/></g></g></g><g fill="#4a5040" fill-opacity="1"><g transform="translate(37.243677, 17.429615)"><g><path d="M 2.25 -1.453125 L 2.359375 -0.203125 L 1.390625 -0.125 L 1.28125 -1.34375 L -0.375 -3.828125 L 0.609375 -3.90625 L 1.6875 -2.328125 L 2.421875 -4.078125 L 3.40625 -4.15625 Z M 2.25 -1.453125 "/></g></g></g><g fill="#4a5040" fill-opacity="1"><g transform="translate(40.661208, 17.098593)"><g><path d="M 0.609375 -3.828125 L 2.421875 -3.71875 C 2.859375 -3.6875 3.195312 -3.578125 3.4375 -3.390625 C 3.6875 -3.203125 3.804688 -2.960938 3.796875 -2.671875 C 3.785156 -2.460938 3.710938 -2.285156 3.578125 -2.140625 C 3.453125 -2.003906 3.285156 -1.914062 3.078125 -1.875 C 3.316406 -1.8125 3.5 -1.6875 3.625 -1.5 C 3.757812 -1.3125 3.820312 -1.09375 3.8125 -0.84375 C 3.789062 -0.519531 3.640625 -0.269531 3.359375 -0.09375 C 3.085938 0.0820312 2.722656 0.15625 2.265625 0.125 L 0.390625 0.015625 Z M 1.546875 -3.03125 L 1.5 -2.234375 L 2.296875 -2.1875 C 2.429688 -2.175781 2.539062 -2.203125 2.625 -2.265625 C 2.71875 -2.335938 2.769531 -2.4375 2.78125 -2.5625 C 2.789062 -2.675781 2.753906 -2.769531 2.671875 -2.84375 C 2.585938 -2.925781 2.476562 -2.972656 2.34375 -2.984375 Z M 1.453125 -1.53125 L 1.40625 -0.671875 L 2.203125 -0.625 C 2.378906 -0.613281 2.519531 -0.644531 2.625 -0.71875 C 2.738281 -0.789062 2.796875 -0.894531 2.796875 -1.03125 C 2.804688 -1.15625 2.757812 -1.257812 2.65625 -1.34375 C 2.5625 -1.425781 2.425781 -1.472656 2.25 -1.484375 Z M 1.453125 -1.53125 "/></g></g></g><g fill="#4a5040" fill-opacity="1"><g transform="translate(44.264803, 17.272737)"><g><path d="M 3.03125 -0.0625 L 1.390625 -0.421875 L 0.96875 0.203125 L -0.03125 0 L 2.421875 -3.40625 L 3.390625 -3.1875 L 4.171875 0.90625 L 3.140625 0.6875 Z M 2.90625 -0.859375 L 2.671875 -2.359375 L 1.828125 -1.09375 Z M 2.90625 -0.859375 "/></g></g></g><g fill="#4a5040" fill-opacity="1"><g transform="translate(48.085113, 18.089027)"><g><path d="M 2.515625 0.984375 L 2.390625 -0.21875 L 2.359375 -0.234375 L 1.65625 -0.5 L 1.265625 0.5 L 0.359375 0.140625 L 1.75 -3.4375 L 3.359375 -2.8125 C 3.828125 -2.625 4.148438 -2.375 4.328125 -2.0625 C 4.503906 -1.75 4.515625 -1.394531 4.359375 -1 C 4.140625 -0.4375 3.773438 -0.128906 3.265625 -0.078125 L 3.546875 1.390625 Z M 1.9375 -1.234375 L 2.640625 -0.96875 C 2.828125 -0.894531 2.992188 -0.882812 3.140625 -0.9375 C 3.296875 -0.988281 3.410156 -1.101562 3.484375 -1.28125 C 3.554688 -1.46875 3.554688 -1.632812 3.484375 -1.78125 C 3.410156 -1.925781 3.28125 -2.035156 3.09375 -2.109375 L 2.390625 -2.375 Z M 1.9375 -1.234375 "/></g></g></g><g fill="#4a5040" fill-opacity="1"><g transform="translate(51.503793, 19.382788)"><g><path d="M 2.890625 0.875 L 1.453125 0.03125 L 0.84375 0.5 L -0.03125 -0.015625 L 3.359375 -2.484375 L 4.21875 -1.984375 L 3.6875 2.15625 L 2.78125 1.625 Z M 3.03125 0.09375 L 3.28125 -1.421875 L 2.0625 -0.46875 Z M 3.03125 0.09375 "/></g></g></g><g fill="#4a5040" fill-opacity="1"><g transform="translate(22.04541, 61.394163)"><g><path d="M 2.734375 1.28125 L 1.4375 0.234375 L 0.765625 0.609375 L -0.03125 -0.015625 L 3.671875 -2 L 4.46875 -1.375 L 3.34375 2.640625 L 2.53125 2 Z M 2.984375 0.5 L 3.4375 -0.9375 L 2.125 -0.1875 Z M 2.984375 0.5 "/></g></g></g><g fill="#4a5040" fill-opacity="1"><g transform="translate(25.663481, 64.216093)"><g><path d="M 2.21875 -3.171875 L 3.65625 -2.359375 C 4.1875 -2.066406 4.53125 -1.675781 4.6875 -1.1875 C 4.84375 -0.695312 4.785156 -0.203125 4.515625 0.296875 C 4.242188 0.796875 3.847656 1.109375 3.328125 1.234375 C 2.816406 1.359375 2.289062 1.269531 1.75 0.96875 L 0.34375 0.1875 Z M 2.671875 -2.015625 L 1.5625 -0.03125 L 2.171875 0.3125 C 2.441406 0.457031 2.710938 0.484375 2.984375 0.390625 C 3.253906 0.304688 3.46875 0.117188 3.625 -0.171875 C 3.789062 -0.460938 3.835938 -0.75 3.765625 -1.03125 C 3.691406 -1.320312 3.519531 -1.539062 3.25 -1.6875 Z M 2.671875 -2.015625 "/></g></g></g><g fill="#4a5040" fill-opacity="1"><g transform="translate(29.667366, 66.402163)"><g><path d="M 2.34375 0.859375 L 1.390625 0.515625 L 1.3125 -3.609375 L 2.296875 -3.25 L 2.25 -0.25 L 4.140625 -2.578125 L 5.078125 -2.234375 Z M 2.34375 0.859375 "/></g></g></g><g fill="#4a5040" fill-opacity="1"><g transform="translate(33.746672, 67.855005)"><g><path d="M 3.96875 -2.328125 L 1.953125 -2.734375 L 1.796875 -1.984375 L 3.609375 -1.625 L 3.453125 -0.875 L 1.640625 -1.234375 L 1.484375 -0.46875 L 3.53125 -0.046875 L 3.375 0.703125 L 0.375 0.078125 L 1.15625 -3.6875 L 4.125 -3.078125 Z M 3.96875 -2.328125 "/></g></g></g><g fill="#4a5040" fill-opacity="1"><g transform="translate(37.708144, 68.667496)"><g><path d="M 3.9375 0.1875 L 3.078125 0.15625 L 1.421875 -2.3125 L 1.296875 0.0625 L 0.390625 0.015625 L 0.578125 -3.828125 L 1.4375 -3.78125 L 3.109375 -1.3125 L 3.21875 -3.6875 L 4.125 -3.65625 Z M 3.9375 0.1875 "/></g></g></g><g fill="#4a5040" fill-opacity="1"><g transform="translate(42.345809, 68.838438)"><g><path d="M 3.015625 -3.375 L 1.859375 -3.25 L 2.15625 -0.203125 L 1.1875 -0.109375 L 0.890625 -3.15625 L -0.265625 -3.046875 L -0.34375 -3.84375 L 2.9375 -4.171875 Z M 3.015625 -3.375 "/></g></g></g><g fill="#4a5040" fill-opacity="1"><g transform="translate(46.005153, 68.487703)"><g><path d="M 2.8125 -4.65625 L 3.34375 -2.484375 C 3.46875 -1.992188 3.414062 -1.5625 3.1875 -1.1875 C 2.957031 -0.820312 2.578125 -0.578125 2.046875 -0.453125 C 1.523438 -0.328125 1.066406 -0.367188 0.671875 -0.578125 C 0.285156 -0.796875 0.03125 -1.148438 -0.09375 -1.640625 L -0.625 -3.8125 L 0.34375 -4.046875 L 0.875 -1.875 C 0.9375 -1.632812 1.054688 -1.457031 1.234375 -1.34375 C 1.421875 -1.238281 1.625 -1.210938 1.84375 -1.265625 C 2.070312 -1.316406 2.238281 -1.429688 2.34375 -1.609375 C 2.445312 -1.785156 2.46875 -2 2.40625 -2.25 L 1.875 -4.421875 Z M 2.8125 -4.65625 "/></g></g></g><g fill="#4a5040" fill-opacity="1"><g transform="translate(50.375503, 67.37869)"><g><path d="M 2.5 -1.046875 L 1.546875 -1.828125 L 1.53125 -1.8125 L 0.828125 -1.53125 L 1.25 -0.53125 L 0.359375 -0.15625 L -1.125 -3.703125 L 0.46875 -4.359375 C 0.9375 -4.554688 1.34375 -4.601562 1.6875 -4.5 C 2.03125 -4.394531 2.285156 -4.144531 2.453125 -3.75 C 2.679688 -3.195312 2.628906 -2.726562 2.296875 -2.34375 L 3.515625 -1.46875 Z M 0.53125 -2.25 L 1.234375 -2.53125 C 1.421875 -2.613281 1.546875 -2.722656 1.609375 -2.859375 C 1.679688 -3.003906 1.679688 -3.171875 1.609375 -3.359375 C 1.535156 -3.535156 1.421875 -3.648438 1.265625 -3.703125 C 1.117188 -3.753906 0.953125 -3.738281 0.765625 -3.65625 L 0.0625 -3.375 Z M 0.53125 -2.25 "/></g></g></g><g fill="#4a5040" fill-opacity="1"><g transform="translate(54.329916, 65.685305)"><g><path d="M 1.328125 -4.40625 L -0.4375 -3.34375 L -0.046875 -2.6875 L 1.53125 -3.640625 L 1.9375 -2.984375 L 0.359375 -2.03125 L 0.765625 -1.359375 L 2.5625 -2.4375 L 2.953125 -1.78125 L 0.328125 -0.203125 L -1.65625 -3.5 L 0.9375 -5.0625 Z M 1.328125 -4.40625 "/></g></g></g><g fill="#4a5040" fill-opacity="1"><g transform="translate(57.746428, 63.589543)"><g><path d="M -1.015625 -4.1875 C -0.554688 -4.550781 -0.0703125 -4.757812 0.4375 -4.8125 L 0.640625 -4 C 0.410156 -3.96875 0.179688 -3.90625 -0.046875 -3.8125 C -0.273438 -3.71875 -0.453125 -3.625 -0.578125 -3.53125 C -0.785156 -3.351562 -0.832031 -3.195312 -0.71875 -3.0625 C -0.644531 -2.957031 -0.53125 -2.921875 -0.375 -2.953125 C -0.226562 -2.984375 -0.0625 -3.039062 0.125 -3.125 C 0.320312 -3.21875 0.519531 -3.296875 0.71875 -3.359375 C 0.914062 -3.421875 1.117188 -3.429688 1.328125 -3.390625 C 1.546875 -3.347656 1.738281 -3.226562 1.90625 -3.03125 C 2.132812 -2.738281 2.203125 -2.421875 2.109375 -2.078125 C 2.023438 -1.734375 1.804688 -1.421875 1.453125 -1.140625 C 1.203125 -0.929688 0.921875 -0.773438 0.609375 -0.671875 C 0.304688 -0.566406 0.0078125 -0.515625 -0.28125 -0.515625 L -0.484375 -1.34375 C -0.210938 -1.332031 0.0546875 -1.367188 0.328125 -1.453125 C 0.597656 -1.535156 0.804688 -1.640625 0.953125 -1.765625 C 1.078125 -1.859375 1.15625 -1.953125 1.1875 -2.046875 C 1.226562 -2.148438 1.210938 -2.242188 1.140625 -2.328125 C 1.078125 -2.410156 0.984375 -2.445312 0.859375 -2.4375 C 0.734375 -2.4375 0.597656 -2.398438 0.453125 -2.328125 C 0.316406 -2.265625 0.164062 -2.195312 0 -2.125 C -0.175781 -2.0625 -0.34375 -2.007812 -0.5 -1.96875 C -0.664062 -1.925781 -0.835938 -1.929688 -1.015625 -1.984375 C -1.191406 -2.046875 -1.34375 -2.160156 -1.46875 -2.328125 C -1.695312 -2.597656 -1.765625 -2.898438 -1.671875 -3.234375 C -1.585938 -3.578125 -1.367188 -3.894531 -1.015625 -4.1875 Z M -1.015625 -4.1875 "/></g></g></g><g fill="#4a5040" fill-opacity="1"><g transform="translate(12.497586, 42.734996)"><g><path d="M 0.15625 -0.75 C 0.46875 -0.988281 0.71875 -1.191406 0.90625 -1.359375 C 1.101562 -1.535156 1.269531 -1.71875 1.40625 -1.90625 C 1.539062 -2.09375 1.609375 -2.269531 1.609375 -2.4375 C 1.609375 -2.539062 1.582031 -2.617188 1.53125 -2.671875 C 1.488281 -2.734375 1.421875 -2.765625 1.328125 -2.765625 C 1.242188 -2.765625 1.175781 -2.722656 1.125 -2.640625 C 1.070312 -2.566406 1.046875 -2.453125 1.046875 -2.296875 L 0.140625 -2.296875 C 0.148438 -2.578125 0.210938 -2.8125 0.328125 -3 C 0.441406 -3.1875 0.585938 -3.320312 0.765625 -3.40625 C 0.953125 -3.5 1.160156 -3.546875 1.390625 -3.546875 C 1.773438 -3.546875 2.0625 -3.445312 2.25 -3.25 C 2.445312 -3.0625 2.546875 -2.8125 2.546875 -2.5 C 2.546875 -2.175781 2.4375 -1.867188 2.21875 -1.578125 C 2 -1.285156 1.722656 -1.023438 1.390625 -0.796875 L 2.578125 -0.796875 L 2.578125 -0.046875 L 0.15625 -0.046875 Z M 0.15625 -0.75 "/></g></g></g><g fill="#4a5040" fill-opacity="1"><g transform="translate(15.201183, 42.734996)"><g><path d="M 0.1875 -1.78125 C 0.1875 -2.332031 0.296875 -2.765625 0.515625 -3.078125 C 0.734375 -3.390625 1.082031 -3.546875 1.5625 -3.546875 C 2.039062 -3.546875 2.390625 -3.390625 2.609375 -3.078125 C 2.828125 -2.765625 2.9375 -2.332031 2.9375 -1.78125 C 2.9375 -1.226562 2.828125 -0.796875 2.609375 -0.484375 C 2.390625 -0.171875 2.039062 -0.015625 1.5625 -0.015625 C 1.082031 -0.015625 0.734375 -0.171875 0.515625 -0.484375 C 0.296875 -0.796875 0.1875 -1.226562 0.1875 -1.78125 Z M 2.03125 -1.78125 C 2.03125 -2.070312 2 -2.289062 1.9375 -2.4375 C 1.875 -2.59375 1.75 -2.671875 1.5625 -2.671875 C 1.375 -2.671875 1.25 -2.59375 1.1875 -2.4375 C 1.132812 -2.289062 1.109375 -2.070312 1.109375 -1.78125 C 1.109375 -1.488281 1.132812 -1.265625 1.1875 -1.109375 C 1.25 -0.960938 1.375 -0.890625 1.5625 -0.890625 C 1.75 -0.890625 1.875 -0.960938 1.9375 -1.109375 C 2 -1.265625 2.03125 -1.488281 2.03125 -1.78125 Z M 2.03125 -1.78125 "/></g></g></g><g fill="#4a5040" fill-opacity="1"><g transform="translate(64.287581, 42.734996)"><g><path d="M 0.15625 -0.75 C 0.46875 -0.988281 0.71875 -1.191406 0.90625 -1.359375 C 1.101562 -1.535156 1.269531 -1.71875 1.40625 -1.90625 C 1.539062 -2.09375 1.609375 -2.269531 1.609375 -2.4375 C 1.609375 -2.539062 1.582031 -2.617188 1.53125 -2.671875 C 1.488281 -2.734375 1.421875 -2.765625 1.328125 -2.765625 C 1.242188 -2.765625 1.175781 -2.722656 1.125 -2.640625 C 1.070312 -2.566406 1.046875 -2.453125 1.046875 -2.296875 L 0.140625 -2.296875 C 0.148438 -2.578125 0.210938 -2.8125 0.328125 -3 C 0.441406 -3.1875 0.585938 -3.320312 0.765625 -3.40625 C 0.953125 -3.5 1.160156 -3.546875 1.390625 -3.546875 C 1.773438 -3.546875 2.0625 -3.445312 2.25 -3.25 C 2.445312 -3.0625 2.546875 -2.8125 2.546875 -2.5 C 2.546875 -2.175781 2.4375 -1.867188 2.21875 -1.578125 C 2 -1.285156 1.722656 -1.023438 1.390625 -0.796875 L 2.578125 -0.796875 L 2.578125 -0.046875 L 0.15625 -0.046875 Z M 0.15625 -0.75 "/></g></g></g><g fill="#4a5040" fill-opacity="1"><g transform="translate(66.991178, 42.734996)"><g><path d="M 0.234375 -2.4375 C 0.242188 -2.789062 0.351562 -3.0625 0.5625 -3.25 C 0.769531 -3.445312 1.0625 -3.546875 1.4375 -3.546875 C 1.675781 -3.546875 1.878906 -3.503906 2.046875 -3.421875 C 2.222656 -3.335938 2.351562 -3.222656 2.4375 -3.078125 C 2.53125 -2.929688 2.578125 -2.769531 2.578125 -2.59375 C 2.578125 -2.375 2.523438 -2.203125 2.421875 -2.078125 C 2.316406 -1.953125 2.203125 -1.863281 2.078125 -1.8125 L 2.078125 -1.796875 C 2.453125 -1.660156 2.640625 -1.390625 2.640625 -0.984375 C 2.640625 -0.785156 2.59375 -0.609375 2.5 -0.453125 C 2.414062 -0.304688 2.285156 -0.1875 2.109375 -0.09375 C 1.929688 -0.0078125 1.722656 0.03125 1.484375 0.03125 C 1.085938 0.03125 0.773438 -0.0625 0.546875 -0.25 C 0.316406 -0.445312 0.195312 -0.742188 0.1875 -1.140625 L 1.09375 -1.140625 C 1.09375 -1.015625 1.117188 -0.914062 1.171875 -0.84375 C 1.234375 -0.769531 1.328125 -0.734375 1.453125 -0.734375 C 1.546875 -0.734375 1.617188 -0.757812 1.671875 -0.8125 C 1.722656 -0.875 1.75 -0.953125 1.75 -1.046875 C 1.75 -1.171875 1.707031 -1.257812 1.625 -1.3125 C 1.550781 -1.375 1.425781 -1.40625 1.25 -1.40625 L 1.078125 -1.40625 L 1.078125 -2.15625 L 1.25 -2.15625 C 1.363281 -2.15625 1.460938 -2.175781 1.546875 -2.21875 C 1.628906 -2.257812 1.671875 -2.347656 1.671875 -2.484375 C 1.671875 -2.578125 1.644531 -2.648438 1.59375 -2.703125 C 1.550781 -2.753906 1.488281 -2.78125 1.40625 -2.78125 C 1.3125 -2.78125 1.242188 -2.742188 1.203125 -2.671875 C 1.160156 -2.609375 1.140625 -2.53125 1.140625 -2.4375 Z M 0.234375 -2.4375 "/></g></g></g></svg>